# xmcd
#
# Track frame offsets: 
#        150
#        6587
#        8205
#        9062
#        9775
#        10530
#        11140
#        11912
#        20035
#        28762
#        37762
#        47325
#        54225
#        62237
#        72355
#        81675
#        91025
#        100575
#        109950
#        120600
#        131100
#        140325
#        149325
#        161550
#        171750
#        180637
#        191100
#        201300
#        211575
#        223425
#        235725
#        249900
#        253312
#        255222
#        258000
#        261150
#        264225
#        268050
#        271425
#        274650
#        278475
#        280275
#        284250
#        288450
#        293475
#        298425
#        300275
#        303450
#        309375
#        311175
#        312975
#        314925
#        316725
#        319275
#        323100
#        325725
#
# Disc length: 4625 seconds
#
# Revision: 0
# Processed by: cddbd v1.5.1PL2 Copyright (c) Steve Scherf et al.
# Submitted via: ExactAudioCopy v0.95a5
#
DISCID=33120f38
DTITLE=Christopher Heise - Groove Guitar
DYEAR=1900
DGENRE=Instrumental
TTITLE0=Hallo
TTITLE1=Tiefe E-Saite
TTITLE2=A-Saite
TTITLE3=D-Saite
TTITLE4=G-Saite
TTITLE5=H-Saite
TTITLE6=Hohe E-Saite
TTITLE7=Basic Groove
TTITLE8=Basic G-Groove
TTITLE9=Jazz-Groove
TTITLE10=Manish Boy
TTITLE11=High-Ball
TTITLE12=Walkin' Groove
TTITLE13=Stage Groove
TTITLE14=Amsterdam Groove
TTITLE15=Jesus Groove
TTITLE16=Southern Groove
TTITLE17=Soul Groove
TTITLE18=The Trip
TTITLE19=Dark Dungeon
TTITLE20=Australian Barrier
TTITLE21=Bonnie's Groove
TTITLE22=Wash Up Groove
TTITLE23=The Slippery Slope
TTITLE24=Slimy Slicker
TTITLE25=Jungle Groove
TTITLE26=Funky Asylum
TTITLE27=Major Groove
TTITLE28=The Third Crusade
TTITLE29=Tuxedo
TTITLE30=Superfunk
TTITLE31=Basic Groove
TTITLE32=Basic G-Groove
TTITLE33=Jazz Groove
TTITLE34=Manish Boy
TTITLE35=High-Ball
TTITLE36=Walkin' Groove
TTITLE37=Stage Groove
TTITLE38=Amsterdam Groove
TTITLE39=Jesus Groove
TTITLE40=Southern Groove
TTITLE41=Soul Groove
TTITLE42=The Trip
TTITLE43=Dark Dungeon
TTITLE44=Australian Barrier
TTITLE45=Bonnie's Groove
TTITLE46=Wash Up Groove
TTITLE47=The Slippery Slope
TTITLE48=Slimy Slicker
TTITLE49=Jungle Groove
TTITLE50=Funky Asylum
TTITLE51=Major Groove
TTITLE52=The Third Crusade
TTITLE53=Tuxedo
TTITLE54=Superfunk
TTITLE55=Bonnie's Groove (Bonus)
EXTD=
EXTT0=
EXTT1=
EXTT2=
EXTT3=
EXTT4=
EXTT5=
EXTT6=
EXTT7=
EXTT8=
EXTT9=
EXTT10=
EXTT11=
EXTT12=
EXTT13=
EXTT14=
EXTT15=
EXTT16=
EXTT17=
EXTT18=
EXTT19=
EXTT20=
EXTT21=
EXTT22=
EXTT23=
EXTT24=
EXTT25=
EXTT26=
EXTT27=
EXTT28=
EXTT29=
EXTT30=
EXTT31=
EXTT32=
EXTT33=
EXTT34=
EXTT35=
EXTT36=
EXTT37=
EXTT38=
EXTT39=
EXTT40=
EXTT41=
EXTT42=
EXTT43=
EXTT44=
EXTT45=
EXTT46=
EXTT47=
EXTT48=
EXTT49=
EXTT50=
EXTT51=
EXTT52=
EXTT53=
EXTT54=
EXTT55=
PLAYORDER=
